<svg width="212" height="141" viewBox="0 0 212 141" fill="none" xmlns="http://www.w3.org/2000/svg">
<g clip-path="url(#clip0_0_1)">
<path d="M53.27 99.55C51.53 99.45 49.77 99.6667 47.99 100.2C40.4767 102.467 34.6667 104.753 30.56 107.06C28.1333 108.427 25.76 109.01 23.44 108.81C21.46 108.637 19.4 107.647 17.26 105.84C12.0067 101.42 8.70334 95.4467 7.35 87.92C7.29762 87.6179 7.31937 87.3073 7.4134 87.0148C7.50743 86.7223 7.67095 86.4564 7.89 86.24C10.3367 83.86 12.4033 81.1433 14.09 78.09C14.7167 76.9567 15.9967 73.83 17.93 68.71C20.6367 61.5433 24.0767 54.73 28.25 48.27C31.7567 42.8367 36.4533 38.9267 42.34 36.54C42.9667 36.2867 44.3033 35.8767 46.35 35.31C47.97 34.8567 49.29 34.3567 50.31 33.81C51.9967 32.9167 53.1433 31.3967 53.75 29.25C54.7367 25.79 55.2367 20.1233 55.25 12.25C55.25 11.6167 55.3833 10.5267 55.65 8.98001C56.2633 5.43334 58.1933 4.54334 61.44 6.31001C63.2067 7.27668 65.69 9.21001 68.89 12.11C75.31 17.93 81.5867 23.8833 87.72 29.97C87.8897 30.1382 87.9876 30.3661 87.9931 30.6062C87.9987 30.8464 87.9117 31.0805 87.75 31.26C85.15 34.1133 82.8533 36.8967 80.86 39.61C78.5067 42.8033 76.8 45.95 75.74 49.05C74.16 53.69 73.47 58.46 73.67 63.36C73.8433 67.5667 74.8767 72.1867 76.77 77.22C79.4833 84.44 83.2367 91.1767 88.03 97.43C88.205 97.6588 88.2956 97.941 88.2865 98.2289C88.2774 98.5168 88.1691 98.7927 87.98 99.01C78.18 110.423 67.25 119.9 55.19 127.44C52.9967 128.807 50.53 129.937 47.79 130.83C45.1033 131.703 42.87 131.953 41.09 131.58C37.59 130.84 36.6633 128.167 38.31 123.56C39.03 121.56 40.5367 119.323 42.83 116.85C46.55 112.843 49.97 108.6 53.09 104.12C53.5233 103.487 53.9433 102.47 54.35 101.07C54.3997 100.899 54.4099 100.719 54.3799 100.543C54.35 100.367 54.2806 100.2 54.1769 100.054C54.0733 99.908 53.9379 99.7869 53.781 99.6997C53.624 99.6125 53.4494 99.5614 53.27 99.55Z" fill="white"/>
<path d="M39.65 13.53C42.91 15.3167 46.0367 17.31 49.03 19.51C49.1598 19.6048 49.2692 19.7245 49.3517 19.8619C49.4342 19.9993 49.488 20.1517 49.51 20.31C49.9167 23.1767 49.6733 25.75 48.78 28.03C48.5977 28.4966 48.3071 28.912 47.9328 29.241C47.5586 29.57 47.1117 29.8029 46.63 29.92C43.1367 30.7867 39.8933 31.9433 36.9 33.39C36.7895 33.4428 36.6689 33.4711 36.5465 33.473C36.4241 33.4749 36.3027 33.4503 36.1906 33.401C36.0785 33.3516 35.9785 33.2786 35.8973 33.1869C35.816 33.0953 35.7556 32.9872 35.72 32.87C34.5533 29.0033 33.5067 24.9933 32.58 20.84C32.04 18.4133 31.9267 15.9833 32.24 13.55C32.2751 13.2912 32.3897 13.0504 32.5675 12.8618C32.7453 12.6733 32.9771 12.5466 33.23 12.5C35.49 12.0867 37.63 12.43 39.65 13.53Z" fill="white"/>
<path d="M136.921 97.0049C136.695 97.8449 136.915 98.9815 137.581 100.415C139.275 104.048 141.285 107.492 143.611 110.745C148.518 117.598 151.501 122.432 152.561 125.245C153.221 127.012 153.408 128.828 153.121 130.695C153.061 131.086 152.872 131.446 152.584 131.718C152.296 131.989 151.925 132.157 151.531 132.195C148.371 132.482 145.335 132.125 142.421 131.125C140.821 130.578 138.125 129.238 134.331 127.105C122.718 120.585 112.168 112.175 102.681 101.875C96.6747 95.3482 91.8547 88.5715 88.2213 81.5449C79.6947 65.0582 81.6113 50.3682 93.9713 37.4749C94.0647 37.3815 94.5147 36.8815 95.3213 35.9749C97.088 33.9949 97.7747 34.7215 97.3813 38.1549C96.388 46.8149 97.178 55.2982 99.7513 63.6049C101.491 69.2182 104.915 72.4415 110.021 73.2749C113.088 73.7749 115.925 73.4015 118.531 72.1549C121.271 70.8482 123.405 68.7115 124.931 65.7449C125.871 63.9315 126.691 62.0682 127.391 60.1549C130.118 52.7215 133.455 45.5815 137.401 38.7349C138.501 36.8282 139.815 35.3882 141.341 34.4149C142.235 33.8482 142.168 33.4382 141.141 33.1849C139.621 32.8182 138.265 33.1415 137.071 34.1549C132.978 37.6349 130.015 41.9149 128.181 46.9949C125.761 53.7149 123.221 59.2582 120.561 63.6249C119.815 64.8449 118.465 66.2482 116.511 67.8349C115.125 68.9615 113.635 69.4282 112.041 69.2349C110.701 69.0749 109.488 68.3415 108.401 67.0349C106.908 65.2482 105.711 62.9849 104.811 60.2449C101.898 51.4049 101.751 42.8015 104.371 34.4349C105.211 31.7549 106.691 29.4849 108.811 27.6249C110.365 26.2649 112.658 24.9815 115.691 23.7749C122.778 20.9549 130.081 19.7149 137.601 20.0549C142.761 20.2949 147.968 21.3782 153.221 23.3049C158.015 25.0649 162.835 27.4215 167.681 30.3749C173.755 34.0682 177.855 38.9949 179.981 45.1549C180.001 45.2015 180.391 47.1282 181.151 50.9349C182.038 55.3349 184.528 58.8349 188.621 61.4349C192.935 64.1749 197.485 66.0582 202.271 67.0849C206.091 67.8982 208.401 68.5815 209.201 69.1349C211.501 70.7349 212.475 73.2515 212.121 76.6849C211.788 79.9182 210.585 83.1215 208.511 86.2949C204.118 93.0149 198.385 98.0415 191.311 101.375C188.238 102.822 184.925 103.725 181.371 104.085C179.791 104.245 178.238 104.628 176.711 105.235C170.005 107.875 163.251 107.638 156.451 104.525C152.731 102.818 149.148 100.865 145.701 98.6649C144.048 97.6049 141.911 96.6282 139.291 95.7349C138.045 95.3015 137.255 95.7249 136.921 97.0049Z" fill="white"/>
</g>
<defs>
<clipPath id="clip0_0_1">
<rect width="212" height="141" fill="white"/>
</clipPath>
</defs>
</svg>
